<svg width="81" height="66" viewBox="0 0 81 66" fill="none" xmlns="http://www.w3.org/2000/svg">
<path d="M45.064 33.3673C54.3049 33.3673 61.8201 25.8643 61.8201 16.6386C60.9011 -5.54922 29.2269 -5.54315 28.3079 16.6386C28.3079 25.8643 35.8262 33.3673 45.064 33.3673ZM45.064 2.76968C52.7309 2.76968 58.9662 8.99293 58.9662 16.6386C58.202 35.0414 31.926 35.0354 31.1648 16.6386C31.1648 8.99293 37.4002 2.76968 45.064 2.76968Z" fill="#54BBBD"/>
<path d="M45.0639 18.0668H51.2387C53.1129 18.0365 53.119 15.2433 51.2387 15.2099H46.4924V6.53317C46.4924 5.74465 45.8555 5.10474 45.0639 5.10474C44.2754 5.10474 43.6355 5.74465 43.6355 6.53317V16.6384C43.6355 17.4269 44.2754 18.0668 45.0639 18.0668Z" fill="#54BBBD"/>
<mask id="mask0_524_39" style="mask-type:luminance" maskUnits="userSpaceOnUse" x="0" y="31" width="81" height="35">
<path d="M0 31.1777H80.599V66.0001H0V31.1777Z" fill="white"/>
</mask>
<g mask="url(#mask0_524_39)">
<path d="M79.3829 39.2085C77.9362 36.8217 75.0854 35.7814 72.453 36.6761L47.6176 45.1163C47.1293 44.3672 46.4803 43.7091 45.6584 43.2299L29.8516 33.9921C27.4527 32.5879 24.6352 32.136 21.9209 32.7062L12.7407 34.6502C12.7286 32.8275 11.2425 31.3445 9.41676 31.3445H1.70139C0.912865 31.3445 0.272949 31.9844 0.272949 32.7729V62.2212C0.272949 63.0097 0.912865 63.6496 1.70139 63.6496H9.41676C11.5518 63.6648 12.9863 61.7147 12.7407 59.6706C14.0508 59.8677 39.326 65.8029 39.9507 65.3904C41.825 65.3904 43.6871 64.9416 45.3703 64.0651L77.0598 47.5577C80.038 46.0807 81.1722 42.0168 79.3829 39.2085ZM9.88684 60.3257C9.88684 60.5835 9.67455 60.7927 9.41676 60.7927H3.12982V34.2014H9.41676C9.67455 34.2014 9.88684 34.4106 9.88684 34.6714V60.3257ZM77.2721 43.1268C77.0416 43.9548 76.4957 44.628 75.7405 45.0253L44.0511 61.5327C42.2071 62.4911 40.0751 62.7731 38.0522 62.3273L12.7407 56.747V37.5677L22.5123 35.5024C24.5291 35.0748 26.6278 35.4145 28.411 36.4577L44.2179 45.6956C44.8638 46.0716 45.3218 46.6509 45.5614 47.309C46.5774 49.8535 43.6234 52.5042 41.2093 51.0878L29.9183 44.8737C28.2685 43.9942 26.9068 46.4416 28.5414 47.3757L39.8325 53.5899C41.3276 54.4148 43.1018 54.5482 44.697 53.9659C47.19 53.1077 48.8701 50.4115 48.5608 47.8124L73.3689 39.3813C75.6071 38.5352 77.9939 40.8583 77.2721 43.1268Z" fill="#54BBBD"/>
</g>
</svg>
