<svg width="52" height="48" viewBox="0 0 52 48" fill="none" xmlns="http://www.w3.org/2000/svg">
<path d="M34.2539 29.0944C34.2654 29.0732 34.2769 29.054 34.2885 29.0328C34.3 29.0155 34.3096 28.9963 34.3212 28.9771L34.3404 28.9405C34.3789 28.8713 34.4154 28.7982 34.45 28.7271C34.4616 28.7021 34.4731 28.679 34.4846 28.654C34.5 28.6194 34.5154 28.5848 34.5308 28.5501C34.5539 28.4944 34.5769 28.4386 34.5981 28.3828L34.6077 28.3598C34.6423 28.2655 34.6769 28.1655 34.7058 28.0655C34.9269 27.3386 34.9654 26.5598 34.8173 25.8136C34.7885 25.6636 34.7519 25.5155 34.7077 25.3694C34.5635 24.8963 34.3462 24.4501 34.0616 24.0444C34.05 24.0271 34.0366 24.0098 34.025 23.9925L33.8404 23.8386V23.7521C33.7423 23.6348 33.6385 23.5213 33.5289 23.4117C33.3596 23.2444 33.1789 23.0886 32.9885 22.9501C32.7923 22.8059 32.5827 22.6771 32.3673 22.5655C31.7019 22.2232 30.9519 22.0405 30.1981 22.0405C29.4539 22.0405 28.7116 22.2175 28.0539 22.554C27.8327 22.6655 27.6212 22.7944 27.4231 22.9386C27.2269 23.0809 27.0404 23.2405 26.8673 23.4117L25.7808 24.4925L24.6923 23.4117C24.3385 23.0598 23.9327 22.7675 23.4866 22.5463C23.3885 22.4963 23.2866 22.4501 23.1846 22.4078C22.6077 22.1694 21.9943 22.0482 21.3635 22.0482C20.7289 22.0482 20.1116 22.1694 19.5327 22.4117C19.4269 22.4559 19.3212 22.504 19.2193 22.5559C18.7808 22.7771 18.3827 23.0655 18.0327 23.4117C17.8308 23.6117 17.6481 23.8309 17.4866 24.0636C17.4039 24.1828 17.3231 24.3117 17.25 24.4425L17.2346 24.4732C16.8596 25.1559 16.6616 25.9309 16.6616 26.7175C16.6616 26.804 16.6635 26.8905 16.6693 26.9732C16.6731 27.0598 16.6808 27.1482 16.6904 27.2425C16.7193 27.5021 16.7712 27.7636 16.8443 28.0155C16.9827 28.4963 17.1962 28.9501 17.4808 29.3617C17.6423 29.5963 17.8289 29.8194 18.0327 30.0213L25.7923 37.6963H25.7962C25.8462 37.6751 25.8923 37.6424 25.9327 37.604L33.5269 30.0213C33.5462 30.004 33.5635 29.9867 33.5808 29.9694L33.5846 29.9655C33.6 29.9482 33.6173 29.9309 33.6327 29.9136C33.8481 29.6867 34.0404 29.4367 34.2058 29.1732C34.2212 29.1463 34.2385 29.1213 34.2539 29.0944Z" fill="#54BBBD"/>
<mask id="mask0_524_42" style="mask-type:luminance" maskUnits="userSpaceOnUse" x="0" y="0" width="52" height="48">
<path d="M0 0H51.6923V48H0V0Z" fill="white"/>
</mask>
<g mask="url(#mask0_524_42)">
<path d="M42.2212 44.675H8.69619V21.0615L25.6808 4.10382L42.2212 20.6461V44.675ZM50.952 24.85L41.802 15.7L41.7923 5.46921H35.4943V9.40767L26.5808 0.482666C26.102 0.00382029 25.327 0.00382018 24.8481 0.480743L0.62696 24.7038C0.00772887 25.3211 0.00772887 26.3231 0.62696 26.9404C1.24427 27.5577 2.24619 27.5577 2.8635 26.9404L5.54042 24.2634L5.58273 46.0981C5.58465 47.0557 6.36157 47.8307 7.31927 47.8307H43.6443C44.602 47.8307 45.3789 47.0538 45.3789 46.0942V23.7538L48.7231 27.0981C49.3943 27.7692 50.4404 27.7211 51.0481 26.9923C51.5597 26.3788 51.5154 25.4154 50.952 24.85Z" fill="#54BBBD"/>
</g>
</svg>
