<svg width="110" height="144" viewBox="0 0 110 144" fill="none" xmlns="http://www.w3.org/2000/svg">
<path d="M42.276 60.2132C41.6042 59.4528 41.6875 58.2705 42.4479 57.5101C43.2083 56.833 44.474 56.9163 45.151 57.6768L86.6927 107.333C87.3698 108.088 87.2865 109.359 86.526 110.031C85.6823 110.708 84.5 110.625 83.8229 109.864L42.276 60.2132ZM84.0781 112.146C85.0885 111.807 86.1042 112.312 86.526 113.328C86.8646 114.255 86.3542 115.354 85.3438 115.692L26.9948 136.718C25.9792 137.052 24.8802 136.547 24.5469 135.619C24.2083 134.604 24.7135 133.505 25.7292 133.172L84.0781 112.146Z" fill="#54BBBD"/>
<path d="M46.3282 48.3906C47.0886 48.7292 47.849 49.151 48.4427 49.5729C50.1302 50.8385 51.1459 52.4427 51.1459 54.2188C51.1459 56.4115 49.625 58.3542 47.2605 59.6198C45.3177 60.7188 42.5313 61.3958 39.573 61.3958C36.6198 61.3958 33.8334 60.7188 31.8073 59.6198C29.4427 58.3542 28.0052 56.4115 28.0052 54.2188C28.0052 52.4427 29.0209 50.8385 30.7084 49.5729C31.3021 49.151 32.0625 48.7292 32.8177 48.3906C33.2448 49.151 33.6667 49.9115 34.0886 50.6719L34.5105 51.4323C35.9427 54.2187 39.4063 55.3125 42.2761 53.8802C43.375 53.2865 44.2188 52.3594 44.724 51.2604C45.2344 50.25 45.7396 49.3177 46.3282 48.3906Z" fill="#54BBBD"/>
<mask id="mask0_524_40" style="mask-type:luminance" maskUnits="userSpaceOnUse" x="22" y="0" width="36" height="52">
<path d="M22.3854 0H57.052V51.401H22.3854V0Z" fill="white"/>
</mask>
<g mask="url(#mask0_524_40)">
<path fill-rule="evenodd" clip-rule="evenodd" d="M22.4323 17.1458C22.4323 12.4166 24.375 8.10929 27.5 5.07284C30.5416 1.94784 34.8489 0.00512695 39.5729 0.00512695C44.302 0.00512695 48.6093 1.94784 51.651 5.07284C54.776 8.10929 56.7187 12.4166 56.7187 17.1458C56.7187 22.1301 50.1302 34.0364 45.2343 42.5624C44.9791 43.0728 44.6406 43.578 44.3906 44.0833C43.1198 46.2812 42.026 48.2239 41.3489 49.5728C41.1823 49.9114 40.8437 50.2499 40.4218 50.4999C39.4895 50.9218 38.3906 50.5833 37.8854 49.6562C37.125 48.3072 36.0312 46.3645 34.7604 44.0833C34.5104 43.578 34.1718 43.0728 33.9166 42.5624C29.0208 34.0364 22.4323 22.1301 22.4323 17.1458ZM45.5729 11.0676C44.052 9.54679 41.9375 8.61971 39.5729 8.61971C34.8489 8.61971 31.0468 12.4166 31.0468 17.0624C31.0468 19.427 32.0625 21.5364 33.5781 23.0572C35.0989 24.578 37.2135 25.5885 39.5729 25.5885C44.2187 25.5885 48.1041 21.7916 48.1041 17.0624C48.1041 14.6978 47.0885 12.5885 45.5729 11.0676Z" fill="#54BBBD"/>
</g>
<path d="M99.6146 105.052C100.458 105.39 101.135 105.812 101.807 106.234C103.411 107.5 104.427 109.104 104.427 110.875C104.427 113.073 102.99 115.015 100.625 116.281C98.599 117.38 95.8958 118.057 92.8594 118.057C89.901 118.057 87.2031 117.38 85.1719 116.281C82.8073 115.015 81.375 113.073 81.375 110.875C81.375 109.104 82.3854 107.5 83.9896 106.234C84.6667 105.812 85.3438 105.39 86.1875 105.052C86.6094 105.812 87.0313 106.573 87.4531 107.333L87.875 108.088C89.3125 110.875 92.776 111.974 95.5625 110.541C96.6563 109.948 97.5 109.021 98.0938 107.922C98.5156 106.906 99.1094 105.979 99.6146 105.052Z" fill="#54BBBD"/>
<mask id="mask1_524_40" style="mask-type:luminance" maskUnits="userSpaceOnUse" x="75" y="55" width="35" height="53">
<path d="M75.7188 55.4009H109.719V107.401H75.7188V55.4009Z" fill="white"/>
</mask>
<g mask="url(#mask1_524_40)">
<path fill-rule="evenodd" clip-rule="evenodd" d="M75.8021 73.8071C75.8021 69.078 77.6563 64.7707 80.7813 61.7342C83.9063 58.6092 88.1302 56.6665 92.8594 56.6665C97.5886 56.6665 101.896 58.6092 105.016 61.7342C108.141 64.7707 110 69.078 110 73.8071C110 78.7915 103.411 90.6978 98.599 99.2238C98.2605 99.729 98.0105 100.239 97.6719 100.745C96.4896 102.937 95.3907 104.88 94.6302 106.234C94.4636 106.573 94.2084 106.906 93.7865 107.161C92.8594 107.583 91.6771 107.245 91.2552 106.318C90.4948 104.969 89.3959 103.026 88.1302 100.745C87.7917 100.239 87.5365 99.729 87.2032 99.2238C82.3855 90.6978 75.8021 78.7915 75.8021 73.8071ZM98.9375 67.729C97.3334 66.2082 95.224 65.2811 92.8594 65.2811C88.2136 65.2811 84.4167 69.078 84.4167 73.7238C84.4167 76.0884 85.3438 78.1978 86.8646 79.7186C88.4688 81.2394 90.5782 82.2498 92.8594 82.2498C97.5886 82.2498 101.385 78.453 101.385 73.7238C101.385 71.3592 100.458 69.2498 98.9375 67.729Z" fill="#54BBBD"/>
</g>
<mask id="mask2_524_40" style="mask-type:luminance" maskUnits="userSpaceOnUse" x="5" y="130" width="25" height="14">
<path d="M5.05212 130.067H29.0521V144H5.05212V130.067Z" fill="white"/>
</mask>
<g mask="url(#mask2_524_40)">
<path d="M23.6147 131.146C24.3751 131.479 25.1355 131.901 25.7292 132.328C27.4167 133.593 28.4272 135.198 28.4272 136.968C28.4272 139.166 26.9949 141.109 24.6303 142.375C22.6042 143.474 19.8178 144.146 16.8595 144.146C13.9063 144.146 11.2032 143.474 9.17716 142.375C6.81258 141.109 5.29175 139.166 5.29175 136.968C5.29175 135.198 6.30737 133.593 7.99487 132.328C8.58342 131.901 9.34383 131.479 10.1042 131.146C10.5261 131.901 11.0365 132.661 11.4584 133.422L11.7917 134.182C13.3126 137.052 16.7761 138.067 19.5626 136.63C20.6615 136.041 21.5053 135.114 22.0105 134.015C22.5157 133.083 23.0261 132.073 23.6147 131.146Z" fill="#54BBBD"/>
</g>
<mask id="mask3_524_40" style="mask-type:luminance" maskUnits="userSpaceOnUse" x="0" y="82" width="35" height="53">
<path d="M0 82.0674H34.3854V134.067H0V82.0674Z" fill="white"/>
</mask>
<g mask="url(#mask3_524_40)">
<path fill-rule="evenodd" clip-rule="evenodd" d="M-0.28125 99.9009C-0.28125 95.1717 1.66146 90.9478 4.78646 87.8228C7.82292 84.6978 12.1302 82.7603 16.8594 82.7603C21.5885 82.7603 25.8958 84.6978 29.0208 87.8228C32.0625 90.9478 34 95.1717 34 99.9009C34 104.88 27.4167 116.786 22.6042 125.318C22.2656 125.823 21.9271 126.328 21.6719 126.838C20.4063 129.031 19.3073 130.974 18.6354 132.328C18.4635 132.75 18.125 133 17.7917 133.255C16.8594 133.76 15.6771 133.338 15.1719 132.411C14.4948 131.057 13.3958 129.114 12.0469 126.838C11.7917 126.328 11.4583 125.823 11.2031 125.318C6.39063 116.786 -0.28125 104.88 -0.28125 99.9009ZM22.8542 93.8175C21.3333 92.3019 19.224 91.3696 16.8594 91.3696C12.2188 91.3696 8.41667 95.1717 8.41667 99.8175C8.41667 102.182 9.34375 104.292 10.8646 105.812C12.3854 107.417 14.4948 108.344 16.8594 108.344C21.5885 108.344 25.3906 104.542 25.3906 99.8175C25.3906 97.5363 24.4583 95.3384 22.8542 93.8175Z" fill="#54BBBD"/>
</g>
</svg>
