<svg width="100" height="100" viewBox="0 0 100 100" fill="none" xmlns="http://www.w3.org/2000/svg">
<g clip-path="url(#clip0_257_29)">
<path d="M30 10C20.8349 10 13.3333 17.5016 13.3333 26.6667V30C13.3334 30.884 13.6846 31.7318 14.3097 32.3569C14.9348 32.982 15.7826 33.3332 16.6667 33.3333H53.3333C54.2174 33.3332 55.0652 32.982 55.6903 32.3569C56.3154 31.7318 56.6666 30.884 56.6667 30V26.6667C56.6667 21.1051 61.105 16.6667 66.6667 16.6667C72.2283 16.6667 76.6667 21.1051 76.6667 26.6667V73.3333H73.3333C73.3333 75.6733 72.908 77.9133 72.168 80H79.4401C79.9223 80.0822 80.4166 80.0572 80.8881 79.9269C81.3596 79.7966 81.7966 79.5641 82.1681 79.246C82.5397 78.9279 82.8367 78.5319 83.038 78.0861C83.2394 77.6404 83.3402 77.1558 83.3333 76.6667V26.6667C83.3333 17.5016 75.8317 10 66.6667 10H30ZM23.3333 40V76.6667C23.3333 78.5067 24.8267 80 26.6667 80H34.4987C33.7587 77.9133 33.3333 75.6733 33.3333 73.3333H30V40H23.3333ZM43.3333 46.6667C42.8916 46.6604 42.4531 46.742 42.0432 46.9067C41.6333 47.0715 41.2602 47.316 40.9457 47.6261C40.6311 47.9363 40.3813 48.3059 40.2108 48.7134C40.0403 49.1209 39.9525 49.5583 39.9525 50C39.9525 50.4418 40.0403 50.8791 40.2108 51.2866C40.3813 51.6941 40.6311 52.0637 40.9457 52.3739C41.2602 52.684 41.6333 52.9286 42.0432 53.0933C42.4531 53.258 42.8916 53.3396 43.3333 53.3333H63.3333C63.775 53.3396 64.2136 53.258 64.6235 53.0933C65.0334 52.9286 65.4064 52.684 65.721 52.3739C66.0356 52.0637 66.2854 51.6941 66.4559 51.2866C66.6263 50.8791 66.7141 50.4418 66.7141 50C66.7141 49.5583 66.6263 49.1209 66.4559 48.7134C66.2854 48.3059 66.0356 47.9363 65.721 47.6261C65.4064 47.316 65.0334 47.0715 64.6235 46.9067C64.2136 46.742 63.775 46.6604 63.3333 46.6667H43.3333ZM53.3333 60C46.009 60 40 66.009 40 73.3333C40 76.6672 41.286 79.6916 43.3333 82.0378V100L53.3333 93.3333L63.3333 100V82.0378C65.3807 79.6916 66.6667 76.6672 66.6667 73.3333C66.6667 66.009 60.6576 60 53.3333 60ZM53.3333 66.6667C57.0547 66.6667 60 69.612 60 73.3333C60 77.0547 57.0547 80 53.3333 80C49.6119 80 46.6667 77.0547 46.6667 73.3333C46.6667 69.612 49.6119 66.6667 53.3333 66.6667Z" fill="#5686BD"/>
</g>
<defs>
<clipPath id="clip0_257_29">
<rect width="100" height="100" fill="white"/>
</clipPath>
</defs>
</svg>
